<svg width="39" height="16" viewBox="0 0 39 16" fill="none" xmlns="http://www.w3.org/2000/svg">
<path d="M0.804688 12V0.625H4.01562C5.00521 0.625 5.88021 0.84375 6.64062 1.28125C7.40104 1.71875 7.98698 2.34115 8.39844 3.14844C8.8151 3.95573 9.02604 4.88281 9.03125 5.92969V6.65625C9.03125 7.72917 8.82292 8.66927 8.40625 9.47656C7.99479 10.2839 7.40365 10.9036 6.63281 11.3359C5.86719 11.7682 4.97396 11.9896 3.95312 12H0.804688ZM2.30469 1.85938V10.7734H3.88281C5.03906 10.7734 5.9375 10.4141 6.57812 9.69531C7.22396 8.97656 7.54688 7.95312 7.54688 6.625V5.96094C7.54688 4.66927 7.24219 3.66667 6.63281 2.95312C6.02865 2.23438 5.16927 1.86979 4.05469 1.85938H2.30469ZM14.5859 12.1562C13.4401 12.1562 12.5078 11.7812 11.7891 11.0312C11.0703 10.276 10.7109 9.26823 10.7109 8.00781V7.74219C10.7109 6.90365 10.8698 6.15625 11.1875 5.5C11.5104 4.83854 11.9583 4.32292 12.5312 3.95312C13.1094 3.57812 13.7344 3.39062 14.4062 3.39062C15.5052 3.39062 16.3594 3.7526 16.9688 4.47656C17.5781 5.20052 17.8828 6.23698 17.8828 7.58594V8.1875H12.1562C12.1771 9.02083 12.4193 9.69531 12.8828 10.2109C13.3516 10.7214 13.9453 10.9766 14.6641 10.9766C15.1745 10.9766 15.6068 10.8724 15.9609 10.6641C16.3151 10.4557 16.625 10.1797 16.8906 9.83594L17.7734 10.5234C17.0651 11.612 16.0026 12.1562 14.5859 12.1562ZM14.4062 4.57812C13.8229 4.57812 13.3333 4.79167 12.9375 5.21875C12.5417 5.64062 12.2969 6.23438 12.2031 7H16.4375V6.89062C16.3958 6.15625 16.1979 5.58854 15.8438 5.1875C15.4896 4.78125 15.0104 4.57812 14.4062 4.57812ZM21.1328 12H19.6875V0H21.1328V12ZM28.6719 12C28.5885 11.8333 28.5208 11.5365 28.4688 11.1094C27.7969 11.8073 26.9948 12.1562 26.0625 12.1562C25.2292 12.1562 24.5443 11.9219 24.0078 11.4531C23.4766 10.9792 23.2109 10.3802 23.2109 9.65625C23.2109 8.77604 23.5443 8.09375 24.2109 7.60938C24.8828 7.11979 25.8255 6.875 27.0391 6.875H28.4453V6.21094C28.4453 5.70573 28.2943 5.30469 27.9922 5.00781C27.6901 4.70573 27.2448 4.55469 26.6562 4.55469C26.1406 4.55469 25.7083 4.6849 25.3594 4.94531C25.0104 5.20573 24.8359 5.52083 24.8359 5.89062H23.3828C23.3828 5.46875 23.5312 5.0625 23.8281 4.67188C24.1302 4.27604 24.5365 3.96354 25.0469 3.73438C25.5625 3.50521 26.1276 3.39062 26.7422 3.39062C27.7161 3.39062 28.4792 3.63542 29.0312 4.125C29.5833 4.60938 29.8698 5.27865 29.8906 6.13281V10.0234C29.8906 10.7995 29.9896 11.4167 30.1875 11.875V12H28.6719ZM26.2734 10.8984C26.7266 10.8984 27.1562 10.7812 27.5625 10.5469C27.9688 10.3125 28.263 10.0078 28.4453 9.63281V7.89844H27.3125C25.5417 7.89844 24.6562 8.41667 24.6562 9.45312C24.6562 9.90625 24.8073 10.2604 25.1094 10.5156C25.4115 10.7708 25.7995 10.8984 26.2734 10.8984ZM34.7969 9.88281L36.7656 3.54688H38.3125L34.9141 13.3047C34.388 14.7109 33.5521 15.4141 32.4062 15.4141L32.1328 15.3906L31.5938 15.2891V14.1172L31.9844 14.1484C32.474 14.1484 32.8542 14.0495 33.125 13.8516C33.401 13.6536 33.6276 13.2917 33.8047 12.7656L34.125 11.9062L31.1094 3.54688H32.6875L34.7969 9.88281Z" fill="black"/>
</svg>
